<?xml version="1.0" encoding="UTF-8"?>
<svg width="150" height="150" viewBox="0 0 150 150" fill="none" xmlns="http://www.w3.org/2000/svg">
    <!-- Background -->
    <rect width="150" height="150" rx="10" fill="#1A1F35"/>
    
    <!-- Optmyzr Logo -->
    <g transform="translate(25, 25)">
        <!-- Gear Icon -->
        <path d="M50 20 L55 30 L65 25 L70 35 L60 40 L65 50 L75 50 L75 60 L65 60 L60 70 L70 75 L65 85 L55 80 L50 90 L45 80 L35 85 L30 75 L40 70 L35 60 L25 60 L25 50 L35 50 L40 40 L30 35 L35 25 L45 30 Z" 
              fill="#1E88E5" stroke="#64B5F6" stroke-width="2"/>
        
        <!-- Center Circle -->
        <circle cx="50" cy="55" r="15" fill="#1A1F35" stroke="#64B5F6" stroke-width="2"/>
        
        <!-- Arrow -->
        <path d="M45 55 L55 55 M52 50 L57 55 L52 60" stroke="#64B5F6" stroke-width="2" fill="none" stroke-linecap="round" stroke-linejoin="round"/>
        
        <!-- Optimization Lines -->
        <path d="M85 30 L95 30 M85 40 L100 40 M85 50 L90 50" stroke="#1E88E5" stroke-width="2" stroke-linecap="round"/>
    </g>
    
    <!-- Text -->
    <text x="75" y="130" fill="white" font-family="Arial, sans-serif" font-size="14" text-anchor="middle" font-weight="bold">Optmyzr</text>
</svg>
