<?xml version="1.0" encoding="UTF-8"?>
<svg width="600" height="400" viewBox="0 0 600 400" xmlns="http://www.w3.org/2000/svg">
    <!-- Background -->
    <rect x="0" y="0" width="600" height="400" fill="#1A1F35"/>
    
    <!-- Email Flow Diagram -->
    <g fill="none" stroke="#E63946" stroke-width="2">
        <!-- Main Flow Path -->
        <path d="M50,200 C150,200 150,100 250,100 S350,200 450,200 S550,300 550,200" 
              stroke-dasharray="5,5" opacity="0.5"/>
        
        <!-- Email Icons -->
        <g transform="translate(50,180)">
            <rect x="0" y="0" width="40" height="30" stroke="#FFFFFF"/>
            <path d="M0,0 L20,15 L40,0" stroke="#FFFFFF"/>
        </g>
        
        <g transform="translate(250,80)">
            <rect x="0" y="0" width="40" height="30" stroke="#FFFFFF"/>
            <path d="M0,0 L20,15 L40,0" stroke="#FFFFFF"/>
        </g>
        
        <g transform="translate(450,180)">
            <rect x="0" y="0" width="40" height="30" stroke="#FFFFFF"/>
            <path d="M0,0 L20,15 L40,0" stroke="#FFFFFF"/>
        </g>
    </g>
    
    <!-- Automation Gears -->
    <g transform="translate(150,250)">
        <circle cx="0" cy="0" r="30" fill="none" stroke="#4A235A" stroke-width="2"/>
        <circle cx="0" cy="0" r="20" fill="none" stroke="#4A235A" stroke-width="2"/>
        <path d="M-30,0 L30,0 M0,-30 L0,30" stroke="#4A235A" stroke-width="2" opacity="0.5"/>
    </g>
    
    <g transform="translate(350,250)">
        <circle cx="0" cy="0" r="30" fill="none" stroke="#4A235A" stroke-width="2"/>
        <circle cx="0" cy="0" r="20" fill="none" stroke="#4A235A" stroke-width="2"/>
        <path d="M-30,0 L30,0 M0,-30 L0,30" stroke="#4A235A" stroke-width="2" opacity="0.5"/>
    </g>
    
    <!-- Analytics Bars -->
    <g transform="translate(450,300)">
        <rect x="0" y="0" width="20" height="60" fill="#E63946" opacity="0.3"/>
        <rect x="30" y="20" width="20" height="40" fill="#E63946" opacity="0.5"/>
        <rect x="60" y="10" width="20" height="50" fill="#E63946" opacity="0.7"/>
    </g>
</svg>
