<?xml version="1.0" encoding="UTF-8"?>
<svg width="600" height="400" viewBox="0 0 600 400" xmlns="http://www.w3.org/2000/svg">
    <!-- Map Background -->
    <rect x="0" y="0" width="600" height="400" fill="#1A1F35"/>
    
    <!-- Grid Lines -->
    <g stroke="#2C3E50" stroke-width="1" opacity="0.3">
        <path d="M0,50 L600,50" />
        <path d="M0,100 L600,100" />
        <path d="M0,150 L600,150" />
        <path d="M0,200 L600,200" />
        <path d="M0,250 L600,250" />
        <path d="M0,300 L600,300" />
        <path d="M0,350 L600,350" />
        <path d="M50,0 L50,400" />
        <path d="M150,0 L150,400" />
        <path d="M250,0 L250,400" />
        <path d="M350,0 L350,400" />
        <path d="M450,0 L450,400" />
        <path d="M550,0 L550,400" />
    </g>

    <!-- Location Markers -->
    <g fill="#E63946">
        <circle cx="150" cy="150" r="20" opacity="0.2"/>
        <circle cx="150" cy="150" r="10"/>
        <circle cx="350" cy="200" r="25" opacity="0.2"/>
        <circle cx="350" cy="200" r="12"/>
        <circle cx="450" cy="150" r="15" opacity="0.2"/>
        <circle cx="450" cy="150" r="8"/>
        <circle cx="250" cy="300" r="30" opacity="0.2"/>
        <circle cx="250" cy="300" r="15"/>
    </g>

    <!-- Connection Lines -->
    <g stroke="#E63946" stroke-width="2" opacity="0.5">
        <path d="M150,150 L350,200" />
        <path d="M350,200 L450,150" />
        <path d="M350,200 L250,300" />
    </g>

    <!-- Search Radius Circles -->
    <circle cx="300" cy="200" r="180" stroke="#4A235A" stroke-width="2" fill="none" opacity="0.2"/>
    <circle cx="300" cy="200" r="120" stroke="#4A235A" stroke-width="2" fill="none" opacity="0.3"/>
    <circle cx="300" cy="200" r="60" stroke="#4A235A" stroke-width="2" fill="none" opacity="0.4"/>
</svg>
