<?xml version="1.0" encoding="UTF-8"?>
<svg width="600" height="400" viewBox="0 0 600 400" xmlns="http://www.w3.org/2000/svg">
    <!-- Background -->
    <rect x="0" y="0" width="600" height="400" fill="#1A1F35"/>
    
    <!-- Network Nodes -->
    <g>
        <!-- Central Node -->
        <circle cx="300" cy="200" r="40" fill="#E63946" opacity="0.8"/>
        
        <!-- Surrounding Nodes -->
        <circle cx="150" cy="150" r="25" fill="#4A235A" opacity="0.6"/>
        <circle cx="450" cy="150" r="25" fill="#4A235A" opacity="0.6"/>
        <circle cx="150" cy="250" r="25" fill="#4A235A" opacity="0.6"/>
        <circle cx="450" cy="250" r="25" fill="#4A235A" opacity="0.6"/>
        <circle cx="300" cy="100" r="25" fill="#4A235A" opacity="0.6"/>
        <circle cx="300" cy="300" r="25" fill="#4A235A" opacity="0.6"/>
        
        <!-- Connection Lines -->
        <g stroke="#FFFFFF" stroke-width="2" opacity="0.3">
            <line x1="300" y1="200" x2="150" y2="150"/>
            <line x1="300" y1="200" x2="450" y2="150"/>
            <line x1="300" y1="200" x2="150" y2="250"/>
            <line x1="300" y1="200" x2="450" y2="250"/>
            <line x1="300" y1="200" x2="300" y2="100"/>
            <line x1="300" y1="200" x2="300" y2="300"/>
        </g>
        
        <!-- Pulse Animation -->
        <circle cx="300" cy="200" r="60" fill="none" stroke="#E63946" opacity="0.2">
            <animate attributeName="r" from="40" to="80" dur="2s" repeatCount="indefinite"/>
            <animate attributeName="opacity" from="0.2" to="0" dur="2s" repeatCount="indefinite"/>
        </circle>
    </g>
    
    <!-- Social Icons (Simplified) -->
    <g fill="#FFFFFF">
        <!-- Facebook-like -->
        <path d="M150,140 h10 v20 h-10 v-20 M160,150 h-15" stroke="#FFFFFF" stroke-width="2"/>
        
        <!-- Twitter-like -->
        <path d="M440,140 l20,10 l-20,10" stroke="#FFFFFF" stroke-width="2" fill="none"/>
        
        <!-- Instagram-like -->
        <rect x="290" y="90" width="20" height="20" stroke="#FFFFFF" stroke-width="2" fill="none"/>
        
        <!-- LinkedIn-like -->
        <rect x="140" y="240" width="20" height="20" stroke="#FFFFFF" stroke-width="2"/>
        
        <!-- YouTube-like -->
        <path d="M440,240 l20,10 l-20,10 z" stroke="#FFFFFF" stroke-width="2"/>
        
        <!-- Pinterest-like -->
        <circle cx="300" cy="300" r="10" stroke="#FFFFFF" stroke-width="2" fill="none"/>
    </g>
</svg>
